<svg id="Layer_1" data-name="Layer 1" xmlns="http://www.w3.org/2000/svg" viewBox="0 0 527.15 171.5"><title>cherie signature</title><path d="M364.79,74.53c-.16-.29-.25-.47-.35-.64-1.33-2-3.13-2.6-5.26-1.42-1.85,1-3.6,2.22-5.34,3.42-2.71,1.85-5.31,3.85-8.06,5.62a48.09,48.09,0,0,1-5.61,2.92,6.72,6.72,0,0,1-2.2.49,3.82,3.82,0,0,1-4.28-2.54,25.08,25.08,0,0,1-.84-3.47,9.3,9.3,0,0,1-.1-1.24c-1.37-.25-2.69-.52-4-.72A5.18,5.18,0,0,1,324,72.19c-.28-1.73-.56-3.46-1-5.17a7.35,7.35,0,0,0-5-5.53c-2-.71-3.9-1.58-6-2.45-.87,1.12-1.88,2.35-2.82,3.63-2.73,3.73-5.42,7.5-8.17,11.23-.93,1.25-2,2.42-3,3.59a11.19,11.19,0,0,1-4.18,2.73c-1.07.45-2.16.83-3.25,1.22a4.15,4.15,0,0,1-4.39-1c-.77-1-.66-3.23.28-4.52a19.33,19.33,0,0,1,4.81-4.82c3.95-2.64,7.95-5.2,11.93-7.79.51-.32,1-.68,1.52-1,4-2.14,5.27-8.31,3.61-12.18a4.84,4.84,0,0,0-3.23-3c-1.5-.38-3.06-.49-4.59-.74a27.75,27.75,0,0,1-3.87-.7c-2.46-.76-3.38-2.43-2.71-4.9a18,18,0,0,1,1.52-3.63c3.93-7.3,7.91-14.58,11.87-21.88a46.06,46.06,0,0,0,3.5-8.5,4.12,4.12,0,0,0-.35-3.24,1.49,1.49,0,0,0-1.77-.86A5.24,5.24,0,0,0,306,4.14c-6.46,6.16-11.37,13.46-15.67,21.21-6,10.75-10.25,22.21-13.88,33.93-1.93,6.24-3.77,12.52-5.63,18.79a11.06,11.06,0,0,0-.32,5.59c.43-.78.75-1.34,1-1.91a138.93,138.93,0,0,0,6.59-16.68c4.34-12.33,8.77-24.63,13.17-36.95a1.63,1.63,0,0,1,.47-.74,7.17,7.17,0,0,1-.11.81,360.81,360.81,0,0,1-13.62,44c-1.26,3.4-2.6,6.78-3.83,10.19A7.5,7.5,0,0,1,271.65,86c-.64.47-1.24,1-1.88,1.52a8.58,8.58,0,0,1-1.55-8.33c.91-3.18,1.94-6.33,2.93-9.48,3.59-11.37,7.16-22.74,11.32-33.92A87.59,87.59,0,0,1,302.71,4.28,25.71,25.71,0,0,1,306,1.54a6,6,0,0,1,2.26-1c2.67-.55,4.64,1.09,4.62,3.9a20.45,20.45,0,0,1-2.33,9.45c-2.21,4.2-4.54,8.33-6.85,12.48s-4.71,8.34-7,12.52a10.68,10.68,0,0,0-1,2.44A2,2,0,0,0,297.22,44a20,20,0,0,0,3.18.57c1.22.17,2.47.17,3.68.41,4.16.85,6.41,3.49,6.69,7.74a13.76,13.76,0,0,1,0,2,1.42,1.42,0,0,0,.88,1.5c1.64.92,3.22,1.93,4.85,2.86a16.08,16.08,0,0,0,2.38,1.11c3.77,1.35,5.63,4.09,6,8a27.85,27.85,0,0,0,.8,4.34c.57,2,1.77,2.82,3.86,3A6.27,6.27,0,0,0,336,72.23a8.35,8.35,0,0,1,6.14-4.53c-.39,1.77-.79,3.52-2.24,4.8a7.88,7.88,0,0,1-1.39,1.14A5.14,5.14,0,0,0,336.11,77c-.31,1-.77,2-1,3.06a2.37,2.37,0,0,0,2.8,3.08,8.35,8.35,0,0,0,3-1.08c2.45-1.49,4.83-3.1,7.22-4.7s4.94-3.38,7.44-5a23.49,23.49,0,0,1,2.51-1.38,6,6,0,0,1,6.16.25,6.44,6.44,0,0,1,1,.62c1,1,2,.79,3.19.17,3.27-1.66,6.61-3.18,10-4.68a7.61,7.61,0,0,1,4.45-.58,6.72,6.72,0,0,1,5.72,6.94,21.51,21.51,0,0,1-.76,4.81c-.35,1.54-.9,3-1.36,4.54l.19.24a35.64,35.64,0,0,0,4.37-2c4.06-2.61,8.06-5.34,12-8.07a11.26,11.26,0,0,1,6.25-2.39c.48,2,1.13,4,.62,6.08a1.05,1.05,0,0,0,.72,1.39,29.18,29.18,0,0,0,6.43-4.62c1.94-2,3.9-3.9,5.89-5.8a9.44,9.44,0,0,1,2.13-1.53,2.17,2.17,0,0,1,3.25,1,13.77,13.77,0,0,1,1.16,3.12c.46,1.77.75,3.59,1.22,5.36A11,11,0,0,0,434,81.2,9.17,9.17,0,0,0,443.6,83,31.59,31.59,0,0,0,449,80.4c1.45-.81,2.8-1.82,4.24-2.77-.85-1.57-1.69-3.06-2.47-4.57a32.88,32.88,0,0,1-3.79-10.91,29.14,29.14,0,0,1,.24-9.18c.86-4.5,1.9-9,2.85-13.45.07-.31.13-.62.22-1a12.57,12.57,0,0,0-4.69-.81c-2.64,0-5.27.2-7.9.25-5,.1-10.07.15-15.1.21-1.24,0-2.48,0-3.72,0-.61,0-.9-.21-.74-.84,2.28-1,4.7-.92,7.08-1q11.86-.34,23.72-.6a4.88,4.88,0,0,0,4.29-2.37c2-3,3.91-6.13,6.06-9a29.64,29.64,0,0,1,12.09-9.55,9,9,0,0,1,5.95-.71A7.72,7.72,0,0,1,483,21.32a40.74,40.74,0,0,1-.83,9.28c-.43,2.63-.92,5.26-1.41,8l2.51.18c9.81.57,19.62,1.24,29.43,1.69,5.59.27,11.19.35,16.78.21,4.42-.1,8.83-.66,13.25-1l.89-.06c0,.4.07.73.12,1.25a29.85,29.85,0,0,1-4.3,1,164.57,164.57,0,0,1-20,1c-7.54-.23-15.09-.42-22.64-.72-4.66-.18-9.32-.53-14-.79a8.51,8.51,0,0,0-2,.11,3.09,3.09,0,0,0-2.32,1.85A146.55,146.55,0,0,1,457.82,75.9c-.33.39-.65.79-1,1.24a19.71,19.71,0,0,0,6.42,4.8A26.47,26.47,0,0,0,474,84.24a34.47,34.47,0,0,0,23.61-8.38c1.84-1.53,3.74-3,5.6-4.47,1.06.9,1.17,1.54.28,2.4-7.28,7.07-15.61,12.09-26,12.64-7.11.39-13.84-.94-19.72-5.32-2.17-1.63-3.51-1.57-5.9.06A24.69,24.69,0,0,1,444.06,85a13.94,13.94,0,0,1-6.06.27A10.88,10.88,0,0,1,429.57,78a38.13,38.13,0,0,1-1.47-5.53c-.44-1.86-.79-3.74-1.21-5.72a3.85,3.85,0,0,0-.55.35c-2.66,2.54-5.3,5.08-7.95,7.63a9.08,9.08,0,0,0-.76.76,10.58,10.58,0,0,1-8.4,3.59c-.29-2.16-.58-4.39-.89-6.74a17.74,17.74,0,0,0-3.92,2.07c-3.05,2.19-6.08,4.41-9.15,6.57a23.49,23.49,0,0,1-8.41,4.19,8.61,8.61,0,0,1-2.6.34A5.29,5.29,0,0,0,380.08,87c-2,1.88-4.43,1.78-6.85,1.8a2.88,2.88,0,0,1-2.94-2.35,9.72,9.72,0,0,1,.15-6.58c.84-2,1.76-4,2.65-6,.16-.36.3-.73.46-1.11-3-.1-5.14,1.78-5.15,4.71,0,2.51.19,5,.14,7.53a65.34,65.34,0,0,1-4.25,21.62,99.36,99.36,0,0,1-17.05,30c-2.37,2.81-4.73,5.67-7.87,7.66a24.32,24.32,0,0,1-5.2,2.66c-5.27,1.77-9.94-.88-11.35-6.25a23.24,23.24,0,0,1-.4-8.1c.63-6.95,3.36-13.16,6.77-19.13a107.69,107.69,0,0,1,16.38-21.32,213,213,0,0,1,17.62-16.23C363.71,75.46,364.22,75,364.79,74.53Zm1.6,2.74-.44-.13c-1.18.94-2.41,1.82-3.53,2.83-1.6,1.44-3.13,3-4.69,4.45-5.82,5.53-11.68,11-17,17.07a71.75,71.75,0,0,0-12.34,18.7c-2.54,5.9-4.12,12-3.48,18.49a21.08,21.08,0,0,0,.32,2.37c.86,3.94,4.42,5.76,8.2,4.07a26.15,26.15,0,0,0,9.11-6.66,102.38,102.38,0,0,0,11.49-15.75c6.94-11.94,11.67-24.62,12.51-38.54C366.7,81.88,366.45,79.57,366.39,77.27Zm88.85-2.07c8.48-10.69,16.2-21.7,21.55-34.3a6.24,6.24,0,0,0-.62-.12l-9.74-1.18c-3.37-.41-6.74-.83-10.1-1.22-2.39-.28-3.14.17-4,2.43-.42,1.12-.81,2.25-1.16,3.4-2.05,6.64-3,13.36-1.51,20.27A19.53,19.53,0,0,0,455.24,75.2Zm-.86-39.58c2.08.22,3.9.4,5.73.61s3.73.44,5.6.63q4.88.49,9.78,1a3,3,0,0,0,3.26-2.33c.36-1.47.74-2.94,1.07-4.42a41.57,41.57,0,0,0,1.31-9.34c0-3.89-2.75-6.26-6.59-5.71a17.39,17.39,0,0,0-8.13,3.86,35.22,35.22,0,0,0-7.77,9C457.23,31.08,455.87,33.28,454.38,35.62ZM379.47,85c-.29-.93-.53-1.68-.77-2.44a4.5,4.5,0,0,1,1.56-5.14,8.28,8.28,0,0,1,.73-.62c2.18-1.43,2.74-3.73,3.24-6,.18-.8-.85-2.16-1.59-2-1.84.33-3.72.62-5,2.3a54.49,54.49,0,0,0-5.88,10.38,9.83,9.83,0,0,0-.63,2.41,3.24,3.24,0,0,0,1.5,3.29,3,3,0,0,0,3.49.15C377.27,86.58,378.32,85.8,379.47,85ZM304.31,65.17c-1.57.93-3.08,1.81-4.58,2.71a73.69,73.69,0,0,0-10.24,7.24,5.1,5.1,0,0,0-1.8,4.6c3.13.91,5.6-.22,7.72-2.35,1.4-1.42,2.73-2.91,4-4.4,2-2.2,3.89-4.43,5.86-6.69Z" transform="translate(-16.61 -0.41)"/><path d="M164.52,92c1.16,1.62,2.28,3.17,3.46,4.8l-.61.73c-.16,0-.26,0-.31-.08-1-.94-2-1.82-2.9-2.84-1.26-1.45-2.14-1.72-3.86-.78a16.18,16.18,0,0,1-5.63,1.9c-3.56.48-6-.88-7.49-4.18-.28-.65-.51-1.34-.81-2.13-1,.37-2,.73-3,1.11a15.14,15.14,0,0,1-6.21,1.08,4.38,4.38,0,0,1-4.44-3.89,13.91,13.91,0,0,1,.42-5.81c.54-2.33,1.11-4.65,1.63-7a6.65,6.65,0,0,0,.13-1.67c0-1.22-.64-1.82-1.84-1.59-3.91.72-7.23,2.37-8.91,6.25a33.33,33.33,0,0,1-6,9.35,31.81,31.81,0,0,1-10,7.65c-4.66,2.13-8.92,1.18-12.36-2.63L94.65,91c-.79.42-1.55.84-2.33,1.23-1.64.81-3.25,1.72-5,2.38-4.87,1.85-9-.6-9.48-5.79-.29-3-.08-6-.13-9a35.71,35.71,0,0,0-.2-4.63,11.21,11.21,0,0,0-1.14-2.63,12.43,12.43,0,0,0-3.35,3.84C72,78.3,71,80.26,69.92,82.18a14.35,14.35,0,0,1-5.31,5.88l-.64.32-1.66-2.53c-1.42,1-2.82,2-4.22,3C52.86,92.43,47.7,96.13,42.38,99.6a19.52,19.52,0,0,1-13.74,3,13.39,13.39,0,0,1-11.5-10.56A26.85,26.85,0,0,1,17,82.19C18.71,69.1,23.63,57.2,30.49,46c6.1-10,13-19.37,20-28.66a21.88,21.88,0,0,1,5.7-4.89c1.24-.81,2.5-1.58,3.75-2.36,1.56-1,2.73-.83,3.94.53a6.87,6.87,0,0,1,1.24,2.07L63.33,12a5.49,5.49,0,0,0-5.86.86A29,29,0,0,0,54,16.38,196.79,196.79,0,0,0,30,51.44,98.89,98.89,0,0,0,20.4,77,53.66,53.66,0,0,0,19.11,89.1a11.85,11.85,0,0,0,3.82,9.12c3.31,3,7.21,3.35,11.35,2.29a37.48,37.48,0,0,0,9.44-4A95.47,95.47,0,0,0,57.07,87,37.73,37.73,0,0,0,68,71.85a210.33,210.33,0,0,1,18-33.75c2.16-3.36,4.37-6.68,6.54-10a19.77,19.77,0,0,1,5.76-5.51,4,4,0,0,1,3.87.18,1.54,1.54,0,0,1,.46.8,4,4,0,0,1-.3,2.8C96.79,36.53,91.47,46.81,85.8,56.88c-2.24,4-5.26,7.52-7.92,11.26-.46.64-.95,1.28-1.41,1.91.57.63,1.15,1.18,1.63,1.81A8.16,8.16,0,0,1,79.73,77c0,2.23-.29,4.46-.34,6.69A28.73,28.73,0,0,0,79.57,89,4.71,4.71,0,0,0,86,93c4.28-1.34,7.6-3.92,9.31-8.16A34.89,34.89,0,0,1,100.77,76a25.28,25.28,0,0,0,1.73-2.14,3.45,3.45,0,0,1,2.79-1.59c.59,0,1.18-.13,1.76-.19a6.4,6.4,0,0,1-1.58,5.68c-2.33,2.68-4.54,5.47-6.78,8.23a12.74,12.74,0,0,0-1.56,2.25,3,3,0,0,0,.76,3.9,7.6,7.6,0,0,0,7.59,1.67,23.27,23.27,0,0,0,7.15-4.06,30.85,30.85,0,0,0,9.74-12,12.81,12.81,0,0,1,10-7.66c2.8-.5,4.63,1,4.38,3.83a44.28,44.28,0,0,1-1.26,5.83c-.44,1.9-1,3.78-1.34,5.69a4.86,4.86,0,0,0,.23,2.23,3.45,3.45,0,0,0,3.87,2.35,12.38,12.38,0,0,0,6.83-2.64,7.68,7.68,0,0,0,2.12-2.69,11.59,11.59,0,0,1,3.45-4.1l1.31.89a15.59,15.59,0,0,1-2.41,4.3c-1.2,1.27-1.83,2.74-1.08,4.48A5.47,5.47,0,0,0,152.71,94c4.76.75,8.71-2.36,8.83-7.15.21-8.69,4-15.61,10.2-21.44A8.14,8.14,0,0,1,178.51,63a2.2,2.2,0,0,1,2,1.6,6.61,6.61,0,0,1-.13,4.91,19.6,19.6,0,0,1-2,3.39C174,79.05,169.47,85.17,165,91.3,164.86,91.49,164.73,91.69,164.52,92ZM70.82,71.08l.24.12A181.51,181.51,0,0,0,101.39,24c-2.58.31-4.58,1.2-5.93,3.27-.32.5-.67,1-1,1.51Q83.26,48.57,72,68.42C71.56,69.26,71.22,70.19,70.82,71.08ZM178.7,65c-1.65-.09-3.2-.16-4.52,1C168.74,70.53,165,76.11,164,83.3c-.17,1.27-.15,2.57-.23,4a4.72,4.72,0,0,0,.53-.24c.28-.24.54-.48.8-.72a83.85,83.85,0,0,0,12.65-16A6.56,6.56,0,0,0,178.7,65Z" transform="translate(-16.61 -0.41)"/><path d="M235.45,45.69a154.27,154.27,0,0,0-4.6,24.58c-.68,6.39-1.27,12.79-1.91,19.18-.21,2.06-.44,4.13-.67,6.34.34.11.7.23,1.06.33,3,.85,6.08,1.69,9.11,2.55.39.11.95,0,.93.69s-.63.7-1,.71a8.29,8.29,0,0,1-2.1-.27c-1.7-.43-3.37-1-5.09-1.36s-2.74.14-3.08,2-.55,4-.77,5.93c-1.78,16.09-5,31.82-11.25,46.83A42.93,42.93,0,0,1,208,166.4a18.68,18.68,0,0,1-5.17,4.23,10.74,10.74,0,0,1-11-.45c-4.76-2.93-7.44-7.37-8.66-12.71a32.28,32.28,0,0,1,.34-13.66c3.45-17,12.81-30.09,26.92-40A49,49,0,0,1,224,96.92a1.71,1.71,0,0,0,1.34-1.68c.82-6.77,1.7-13.54,2.55-20.31q.86-6.71,1.7-13.42a4,4,0,0,0-.09-.69c-.3.36-.5.56-.65.79l-18,27a19.39,19.39,0,0,1-5.23,5.22,8.5,8.5,0,0,1-4.68,1.63,4.94,4.94,0,0,1-5-3.33,13.73,13.73,0,0,1-.93-4.29c-.21-3.74-.35-7.49-.32-11.24A64.08,64.08,0,0,1,196.3,65,149.52,149.52,0,0,1,204,38.37,99.24,99.24,0,0,1,214.16,19.7c1.6-2.39,3.76-2.57,6-.52a1.16,1.16,0,0,1-.32.07,5.46,5.46,0,0,0-5.49,2.68,72.45,72.45,0,0,0-7.41,14.71A227.57,227.57,0,0,0,200,59.77a104,104,0,0,0-3.07,15.84,60.14,60.14,0,0,0,.1,13.61,4.44,4.44,0,0,0,2.89,3.93,4.59,4.59,0,0,0,5-1.08,15.13,15.13,0,0,0,2.36-2.69c6.71-10,13.43-19.92,20-30,1.54-2.35,2.58-5,3.9-7.53.81-1.55,1.64-3.09,2.58-4.57A9.64,9.64,0,0,1,235.45,45.69Zm-10,53.22a19.29,19.29,0,0,0-5.9,1.92c-2.17,1.27-4.35,2.53-6.44,3.94-12.13,8.19-20.88,19-25.51,33-1.62,4.86-2.92,9.79-2.73,15a20.64,20.64,0,0,0,5.45,13.7c4.17,4.56,10.09,4.81,14.24.44a38.38,38.38,0,0,0,9.1-14.88c1-3.27,2.12-6.52,3-9.84,2.22-8.56,4.5-17.11,6.39-25.75,1.09-5,1.45-10.1,2.14-15.15C225.23,100.52,225.3,99.78,225.41,98.91Z" transform="translate(-16.61 -0.41)"/><path d="M157,74.48a1.86,1.86,0,0,1-3.71-.09,1.86,1.86,0,0,1,3.71.09Z" transform="translate(-16.61 -0.41)"/></svg>